<mxfile host="app.diagrams.net" agent="Mozilla/5.0 (Windows NT 10.0; Win64; x64) AppleWebKit/537.36 (KHTML, like Gecko) Chrome/131.0.0.0 Safari/537.36 Edg/131.0.0.0" version="26.0.4">
  <diagram name="第 1 页" id="5_hrlgRrkxQNyP-M99RP">
    <mxGraphModel dx="1042" dy="539" grid="1" gridSize="10" guides="1" tooltips="1" connect="1" arrows="1" fold="1" page="1" pageScale="1" pageWidth="827" pageHeight="1169" math="0" shadow="0">
      <root>
        <mxCell id="0" />
        <mxCell id="1" parent="0" />
        <mxCell id="xzWG090_1QoSRZAbisRV-2" value="ESP32-S3开发板" style="shape=card;whiteSpace=wrap;html=1;" vertex="1" parent="1">
          <mxGeometry x="280" y="170" width="126" height="180" as="geometry" />
        </mxCell>
        <mxCell id="xzWG090_1QoSRZAbisRV-3" value="文心一言" style="shape=parallelogram;perimeter=parallelogramPerimeter;whiteSpace=wrap;html=1;fixedSize=1;" vertex="1" parent="1">
          <mxGeometry x="536" y="172" width="130" height="60" as="geometry" />
        </mxCell>
        <mxCell id="xzWG090_1QoSRZAbisRV-10" value="" style="shape=flexArrow;endArrow=classic;startArrow=classic;html=1;rounded=0;entryX=0;entryY=0.5;entryDx=0;entryDy=0;" edge="1" parent="1" target="xzWG090_1QoSRZAbisRV-3">
          <mxGeometry width="100" height="100" relative="1" as="geometry">
            <mxPoint x="406" y="202" as="sourcePoint" />
            <mxPoint x="526" y="162" as="targetPoint" />
          </mxGeometry>
        </mxCell>
        <mxCell id="xzWG090_1QoSRZAbisRV-11" value="WIFI" style="text;html=1;align=center;verticalAlign=middle;resizable=0;points=[];autosize=1;strokeColor=none;fillColor=none;" vertex="1" parent="1">
          <mxGeometry x="456" y="168" width="50" height="30" as="geometry" />
        </mxCell>
        <mxCell id="xzWG090_1QoSRZAbisRV-13" value="&lt;p class=&quot;MsoNormal&quot;&gt;&lt;span style=&quot;mso-spacerun:&#39;yes&#39;;font-family:宋体;mso-ansi-font-weight:normal;&lt;br/&gt;mso-bidi-font-weight:bold;font-size:10.5000pt;mso-font-kerning:1.0000pt;&quot;&gt;&lt;font face=&quot;Times New Roman&quot;&gt;INMP441&lt;/font&gt;&lt;font face=&quot;宋体&quot;&gt;全向麦克风模块&lt;/font&gt;&lt;/span&gt;&lt;/p&gt;" style="whiteSpace=wrap;html=1;aspect=fixed;" vertex="1" parent="1">
          <mxGeometry x="110" y="160" width="80" height="80" as="geometry" />
        </mxCell>
        <mxCell id="xzWG090_1QoSRZAbisRV-14" value="&lt;p class=&quot;MsoNormal&quot;&gt;&lt;span style=&quot;mso-spacerun:&#39;yes&#39;;font-family:宋体;mso-ansi-font-weight:normal;&lt;br/&gt;mso-bidi-font-weight:bold;font-size:10.5000pt;mso-font-kerning:1.0000pt;&quot;&gt;&lt;font face=&quot;Times New Roman&quot;&gt;MAX98357&lt;/font&gt;&lt;font face=&quot;宋体&quot;&gt;音频放大器模块&lt;/font&gt;&lt;/span&gt;&lt;/p&gt;" style="whiteSpace=wrap;html=1;aspect=fixed;" vertex="1" parent="1">
          <mxGeometry x="110" y="270" width="80" height="80" as="geometry" />
        </mxCell>
        <mxCell id="xzWG090_1QoSRZAbisRV-16" value="" style="shape=flexArrow;endArrow=classic;html=1;rounded=0;exitX=1;exitY=0.5;exitDx=0;exitDy=0;entryX=0;entryY=0;entryDx=0;entryDy=30;entryPerimeter=0;" edge="1" parent="1" source="xzWG090_1QoSRZAbisRV-13" target="xzWG090_1QoSRZAbisRV-2">
          <mxGeometry width="50" height="50" relative="1" as="geometry">
            <mxPoint x="470" y="400" as="sourcePoint" />
            <mxPoint x="520" y="350" as="targetPoint" />
          </mxGeometry>
        </mxCell>
        <mxCell id="xzWG090_1QoSRZAbisRV-17" value="" style="shape=flexArrow;endArrow=classic;html=1;rounded=0;entryX=1;entryY=0.5;entryDx=0;entryDy=0;" edge="1" parent="1" target="xzWG090_1QoSRZAbisRV-14">
          <mxGeometry width="50" height="50" relative="1" as="geometry">
            <mxPoint x="280" y="310" as="sourcePoint" />
            <mxPoint x="414" y="410" as="targetPoint" />
          </mxGeometry>
        </mxCell>
        <mxCell id="xzWG090_1QoSRZAbisRV-18" value="I2S协议" style="text;html=1;align=center;verticalAlign=middle;resizable=0;points=[];autosize=1;strokeColor=none;fillColor=none;" vertex="1" parent="1">
          <mxGeometry x="195" y="168" width="70" height="30" as="geometry" />
        </mxCell>
        <mxCell id="xzWG090_1QoSRZAbisRV-19" value="I2S协议" style="text;html=1;align=center;verticalAlign=middle;resizable=0;points=[];autosize=1;strokeColor=none;fillColor=none;" vertex="1" parent="1">
          <mxGeometry x="210" y="280" width="70" height="30" as="geometry" />
        </mxCell>
        <mxCell id="xzWG090_1QoSRZAbisRV-21" value="电容屏" style="rounded=0;whiteSpace=wrap;html=1;" vertex="1" parent="1">
          <mxGeometry x="536" y="300" width="120" height="60" as="geometry" />
        </mxCell>
        <mxCell id="xzWG090_1QoSRZAbisRV-22" value="" style="shape=flexArrow;endArrow=classic;startArrow=classic;html=1;rounded=0;entryX=0;entryY=0.5;entryDx=0;entryDy=0;" edge="1" parent="1" target="xzWG090_1QoSRZAbisRV-21">
          <mxGeometry width="100" height="100" relative="1" as="geometry">
            <mxPoint x="410" y="330" as="sourcePoint" />
            <mxPoint x="460" y="230" as="targetPoint" />
          </mxGeometry>
        </mxCell>
        <mxCell id="xzWG090_1QoSRZAbisRV-23" value="SPI协议" style="text;html=1;align=center;verticalAlign=middle;resizable=0;points=[];autosize=1;strokeColor=none;fillColor=none;" vertex="1" parent="1">
          <mxGeometry x="446" y="295" width="70" height="30" as="geometry" />
        </mxCell>
      </root>
    </mxGraphModel>
  </diagram>
</mxfile>
